<svg xmlns="http://www.w3.org/2000/svg" viewBox="-4 -1 415.6 64.0" width="416" height="64" role="img" aria-label="SkateCoreo"><title>SkateCoreo</title><g fill="none" stroke="#FFFFFF" stroke-width="6" stroke-linecap="round" stroke-linejoin="round" transform="translate(-0.00 0)"><g transform="translate(6.50 0)"><path d="M30 20 A15 12 0 1 0 15 32 A15 12 0 1 1 0 44"/><circle fill="#4589FF" stroke="none" cx="30" cy="20" r="6.5"/><circle fill="#FFFFFF" stroke="none" cx="0" cy="44" r="6.5"/></g><g transform="translate(55.00 0)"><path d="M0 6 V56 M23 23 L0 40 L23 56"/></g><g transform="translate(90.00 0)"><circle cx="16" cy="40" r="16"/><path d="M32 24 V56"/></g><g transform="translate(136.00 0)"><path d="M9 12 V46 A10 10 0 0 0 19 56 M0 24 H21"/></g><g transform="translate(168.00 0)"><path d="M0 40 H32 A16 16 0 1 0 27.31 51.31"/></g><g transform="translate(215.00 0)"><path d="M33.55 16.57 A19 24 0 1 0 33.55 47.43"/></g><g transform="translate(258.55 0)"><circle cx="16" cy="40" r="16"/></g><g transform="translate(304.55 0)"><path d="M0 24 V56 M0 36 A12 12 0 0 1 12 24"/></g><g transform="translate(327.55 0)"><path d="M0 40 H32 A16 16 0 1 0 27.31 51.31"/></g><g transform="translate(372.55 0)"><circle cx="16" cy="40" r="16"/></g></g></svg>